<mxfile host="app.diagrams.net" modified="2022-01-28T11:47:55.637Z" agent="5.0 (Windows NT 10.0; Win64; x64) AppleWebKit/537.36 (KHTML, like Gecko) Chrome/97.0.4692.99 Safari/537.36 Edg/97.0.1072.69" etag="WFAxNROjhTf1meT61Ibj" version="16.4.11" type="github">
  <diagram name="Page-1" id="2cc2dc42-3aac-f2a9-1cec-7a8b7cbee084">
    <mxGraphModel dx="906" dy="626" grid="1" gridSize="10" guides="1" tooltips="1" connect="1" arrows="1" fold="1" page="1" pageScale="1" pageWidth="1100" pageHeight="850" background="none" math="0" shadow="0">
      <root>
        <mxCell id="0" />
        <mxCell id="1" parent="0" />
        <mxCell id="7026571954dc6520-1" value="" style="strokeWidth=1;shadow=0;dashed=0;align=center;html=1;shape=mxgraph.mockup.containers.browserWindow;rSize=0;strokeColor=#666666;mainText=,;recursiveResize=0;rounded=0;labelBackgroundColor=none;fontFamily=Verdana;fontSize=12" parent="1" vertex="1">
          <mxGeometry x="120" y="60" width="1050" height="1690" as="geometry" />
        </mxCell>
        <mxCell id="7026571954dc6520-2" value="Page 1" style="strokeWidth=1;shadow=0;dashed=0;align=center;html=1;shape=mxgraph.mockup.containers.anchor;fontSize=17;fontColor=#666666;align=left;" parent="7026571954dc6520-1" vertex="1">
          <mxGeometry x="60" y="12" width="110" height="26" as="geometry" />
        </mxCell>
        <mxCell id="7026571954dc6520-3" value="https://www.default.com" style="strokeWidth=1;shadow=0;dashed=0;align=center;html=1;shape=mxgraph.mockup.containers.anchor;rSize=0;fontSize=17;fontColor=#666666;align=left;" parent="7026571954dc6520-1" vertex="1">
          <mxGeometry x="130" y="60" width="250" height="26" as="geometry" />
        </mxCell>
        <mxCell id="LoF7N9ZbmjchOXrET8C3-97" value="Alertas" style="text;strokeColor=none;fillColor=none;html=1;fontSize=24;fontStyle=1;verticalAlign=middle;align=center;" vertex="1" parent="7026571954dc6520-1">
          <mxGeometry x="20" y="180" width="100" height="40" as="geometry" />
        </mxCell>
        <mxCell id="LoF7N9ZbmjchOXrET8C3-98" value="Search" style="strokeWidth=1;shadow=0;dashed=0;align=center;html=1;shape=mxgraph.mockup.forms.searchBox;strokeColor=#999999;mainText=;strokeColor2=#008cff;fontColor=#666666;fontSize=17;align=left;spacingLeft=3;rounded=0;labelBackgroundColor=none;" vertex="1" parent="7026571954dc6520-1">
          <mxGeometry x="20" y="720" width="220" height="30" as="geometry" />
        </mxCell>
        <mxCell id="LoF7N9ZbmjchOXrET8C3-99" value="&lt;font style=&quot;font-size: 16px&quot;&gt;Campo de busqueda 1&lt;/font&gt;" style="text;html=1;strokeColor=none;fillColor=none;align=center;verticalAlign=middle;whiteSpace=wrap;rounded=0;" vertex="1" parent="7026571954dc6520-1">
          <mxGeometry x="20" y="680" width="190" height="30" as="geometry" />
        </mxCell>
        <mxCell id="LoF7N9ZbmjchOXrET8C3-100" value="Search" style="strokeWidth=1;shadow=0;dashed=0;align=center;html=1;shape=mxgraph.mockup.forms.searchBox;strokeColor=#999999;mainText=;strokeColor2=#008cff;fontColor=#666666;fontSize=17;align=left;spacingLeft=3;rounded=0;labelBackgroundColor=none;" vertex="1" parent="7026571954dc6520-1">
          <mxGeometry x="350" y="720" width="220" height="30" as="geometry" />
        </mxCell>
        <mxCell id="LoF7N9ZbmjchOXrET8C3-101" value="&lt;font style=&quot;font-size: 16px&quot;&gt;Campo de busqueda 3&lt;/font&gt;" style="text;html=1;strokeColor=none;fillColor=none;align=center;verticalAlign=middle;whiteSpace=wrap;rounded=0;" vertex="1" parent="7026571954dc6520-1">
          <mxGeometry x="730" y="670" width="170" height="30" as="geometry" />
        </mxCell>
        <mxCell id="LoF7N9ZbmjchOXrET8C3-102" value="Search" style="strokeWidth=1;shadow=0;dashed=0;align=center;html=1;shape=mxgraph.mockup.forms.searchBox;strokeColor=#999999;mainText=;strokeColor2=#008cff;fontColor=#666666;fontSize=17;align=left;spacingLeft=3;rounded=0;labelBackgroundColor=none;" vertex="1" parent="7026571954dc6520-1">
          <mxGeometry x="730" y="710" width="220" height="30" as="geometry" />
        </mxCell>
        <mxCell id="LoF7N9ZbmjchOXrET8C3-103" value="" style="shape=table;html=1;whiteSpace=wrap;startSize=0;container=1;collapsible=0;childLayout=tableLayout;" vertex="1" parent="7026571954dc6520-1">
          <mxGeometry x="20" y="820" width="960" height="120" as="geometry" />
        </mxCell>
        <mxCell id="LoF7N9ZbmjchOXrET8C3-104" value="" style="shape=tableRow;horizontal=0;startSize=0;swimlaneHead=0;swimlaneBody=0;top=0;left=0;bottom=0;right=0;collapsible=0;dropTarget=0;fillColor=none;points=[[0,0.5],[1,0.5]];portConstraint=eastwest;" vertex="1" parent="LoF7N9ZbmjchOXrET8C3-103">
          <mxGeometry width="960" height="40" as="geometry" />
        </mxCell>
        <mxCell id="LoF7N9ZbmjchOXrET8C3-105" value="&lt;font style=&quot;font-size: 16px&quot;&gt;ID encontrado 1&lt;/font&gt;" style="shape=partialRectangle;html=1;whiteSpace=wrap;connectable=0;fillColor=none;top=0;left=0;bottom=0;right=0;overflow=hidden;" vertex="1" parent="LoF7N9ZbmjchOXrET8C3-104">
          <mxGeometry width="321" height="40" as="geometry">
            <mxRectangle width="321" height="40" as="alternateBounds" />
          </mxGeometry>
        </mxCell>
        <mxCell id="LoF7N9ZbmjchOXrET8C3-106" value="&lt;font style=&quot;font-size: 16px&quot;&gt;Nombre1&lt;/font&gt;" style="shape=partialRectangle;html=1;whiteSpace=wrap;connectable=0;fillColor=none;top=0;left=0;bottom=0;right=0;overflow=hidden;" vertex="1" parent="LoF7N9ZbmjchOXrET8C3-104">
          <mxGeometry x="321" width="539" height="40" as="geometry">
            <mxRectangle width="539" height="40" as="alternateBounds" />
          </mxGeometry>
        </mxCell>
        <mxCell id="LoF7N9ZbmjchOXrET8C3-107" value="" style="shape=partialRectangle;html=1;whiteSpace=wrap;connectable=0;fillColor=none;top=0;left=0;bottom=0;right=0;overflow=hidden;" vertex="1" parent="LoF7N9ZbmjchOXrET8C3-104">
          <mxGeometry x="860" width="100" height="40" as="geometry">
            <mxRectangle width="100" height="40" as="alternateBounds" />
          </mxGeometry>
        </mxCell>
        <mxCell id="LoF7N9ZbmjchOXrET8C3-108" value="" style="shape=tableRow;horizontal=0;startSize=0;swimlaneHead=0;swimlaneBody=0;top=0;left=0;bottom=0;right=0;collapsible=0;dropTarget=0;fillColor=none;points=[[0,0.5],[1,0.5]];portConstraint=eastwest;" vertex="1" parent="LoF7N9ZbmjchOXrET8C3-103">
          <mxGeometry y="40" width="960" height="40" as="geometry" />
        </mxCell>
        <mxCell id="LoF7N9ZbmjchOXrET8C3-109" value="&lt;font style=&quot;font-size: 16px&quot;&gt;ID encontrado 2&lt;/font&gt;" style="shape=partialRectangle;html=1;whiteSpace=wrap;connectable=0;fillColor=none;top=0;left=0;bottom=0;right=0;overflow=hidden;" vertex="1" parent="LoF7N9ZbmjchOXrET8C3-108">
          <mxGeometry width="321" height="40" as="geometry">
            <mxRectangle width="321" height="40" as="alternateBounds" />
          </mxGeometry>
        </mxCell>
        <mxCell id="LoF7N9ZbmjchOXrET8C3-110" value="&lt;font style=&quot;font-size: 16px&quot;&gt;Nombre2&lt;/font&gt;" style="shape=partialRectangle;html=1;whiteSpace=wrap;connectable=0;fillColor=none;top=0;left=0;bottom=0;right=0;overflow=hidden;" vertex="1" parent="LoF7N9ZbmjchOXrET8C3-108">
          <mxGeometry x="321" width="539" height="40" as="geometry">
            <mxRectangle width="539" height="40" as="alternateBounds" />
          </mxGeometry>
        </mxCell>
        <mxCell id="LoF7N9ZbmjchOXrET8C3-111" value="" style="shape=partialRectangle;html=1;whiteSpace=wrap;connectable=0;fillColor=none;top=0;left=0;bottom=0;right=0;overflow=hidden;" vertex="1" parent="LoF7N9ZbmjchOXrET8C3-108">
          <mxGeometry x="860" width="100" height="40" as="geometry">
            <mxRectangle width="100" height="40" as="alternateBounds" />
          </mxGeometry>
        </mxCell>
        <mxCell id="LoF7N9ZbmjchOXrET8C3-112" style="shape=tableRow;horizontal=0;startSize=0;swimlaneHead=0;swimlaneBody=0;top=0;left=0;bottom=0;right=0;collapsible=0;dropTarget=0;fillColor=none;points=[[0,0.5],[1,0.5]];portConstraint=eastwest;" vertex="1" parent="LoF7N9ZbmjchOXrET8C3-103">
          <mxGeometry y="80" width="960" height="40" as="geometry" />
        </mxCell>
        <mxCell id="LoF7N9ZbmjchOXrET8C3-113" value="&lt;span&gt;&lt;font style=&quot;font-size: 16px&quot;&gt;ID encontrado 3&lt;/font&gt;&lt;/span&gt;" style="shape=partialRectangle;html=1;whiteSpace=wrap;connectable=0;fillColor=none;top=0;left=0;bottom=0;right=0;overflow=hidden;" vertex="1" parent="LoF7N9ZbmjchOXrET8C3-112">
          <mxGeometry width="321" height="40" as="geometry">
            <mxRectangle width="321" height="40" as="alternateBounds" />
          </mxGeometry>
        </mxCell>
        <mxCell id="LoF7N9ZbmjchOXrET8C3-114" value="&lt;font style=&quot;font-size: 16px&quot;&gt;Nombre3&lt;/font&gt;" style="shape=partialRectangle;html=1;whiteSpace=wrap;connectable=0;fillColor=none;top=0;left=0;bottom=0;right=0;overflow=hidden;" vertex="1" parent="LoF7N9ZbmjchOXrET8C3-112">
          <mxGeometry x="321" width="539" height="40" as="geometry">
            <mxRectangle width="539" height="40" as="alternateBounds" />
          </mxGeometry>
        </mxCell>
        <mxCell id="LoF7N9ZbmjchOXrET8C3-115" style="shape=partialRectangle;html=1;whiteSpace=wrap;connectable=0;fillColor=none;top=0;left=0;bottom=0;right=0;overflow=hidden;" vertex="1" parent="LoF7N9ZbmjchOXrET8C3-112">
          <mxGeometry x="860" width="100" height="40" as="geometry">
            <mxRectangle width="100" height="40" as="alternateBounds" />
          </mxGeometry>
        </mxCell>
        <mxCell id="LoF7N9ZbmjchOXrET8C3-128" value="Ver detalles" style="labelPosition=center;verticalLabelPosition=middle;align=center;html=1;shape=mxgraph.basic.shaded_button;dx=10;fillColor=#E6E6E6;strokeColor=none;" vertex="1" parent="7026571954dc6520-1">
          <mxGeometry x="880" y="820" width="100" height="40" as="geometry" />
        </mxCell>
        <mxCell id="LoF7N9ZbmjchOXrET8C3-129" value="Ver detalles" style="labelPosition=center;verticalLabelPosition=middle;align=center;html=1;shape=mxgraph.basic.shaded_button;dx=10;fillColor=#E6E6E6;strokeColor=none;" vertex="1" parent="7026571954dc6520-1">
          <mxGeometry x="880" y="900" width="100" height="40" as="geometry" />
        </mxCell>
        <mxCell id="LoF7N9ZbmjchOXrET8C3-130" value="Ver detalles" style="labelPosition=center;verticalLabelPosition=middle;align=center;html=1;shape=mxgraph.basic.shaded_button;dx=10;fillColor=#E6E6E6;strokeColor=none;" vertex="1" parent="7026571954dc6520-1">
          <mxGeometry x="880" y="860" width="100" height="40" as="geometry" />
        </mxCell>
        <mxCell id="LoF7N9ZbmjchOXrET8C3-131" value="&lt;font style=&quot;font-size: 16px&quot;&gt;Campo de busqueda 2&lt;/font&gt;" style="text;html=1;strokeColor=none;fillColor=none;align=center;verticalAlign=middle;whiteSpace=wrap;rounded=0;" vertex="1" parent="7026571954dc6520-1">
          <mxGeometry x="350" y="680" width="170" height="30" as="geometry" />
        </mxCell>
        <mxCell id="LoF7N9ZbmjchOXrET8C3-132" value="Pacientes" style="text;strokeColor=none;fillColor=none;html=1;fontSize=24;fontStyle=1;verticalAlign=middle;align=center;" vertex="1" parent="7026571954dc6520-1">
          <mxGeometry x="20" y="600" width="120" height="40" as="geometry" />
        </mxCell>
        <mxCell id="LoF7N9ZbmjchOXrET8C3-199" value="Search" style="strokeWidth=1;shadow=0;dashed=0;align=center;html=1;shape=mxgraph.mockup.forms.searchBox;strokeColor=#999999;mainText=;strokeColor2=#008cff;fontColor=#666666;fontSize=17;align=left;spacingLeft=3;" vertex="1" parent="7026571954dc6520-1">
          <mxGeometry x="20" y="1140" width="210" height="30" as="geometry" />
        </mxCell>
        <mxCell id="LoF7N9ZbmjchOXrET8C3-200" value="Search" style="strokeWidth=1;shadow=0;dashed=0;align=center;html=1;shape=mxgraph.mockup.forms.searchBox;strokeColor=#999999;mainText=;strokeColor2=#008cff;fontColor=#666666;fontSize=17;align=left;spacingLeft=3;" vertex="1" parent="7026571954dc6520-1">
          <mxGeometry x="360" y="1140" width="230" height="30" as="geometry" />
        </mxCell>
        <mxCell id="LoF7N9ZbmjchOXrET8C3-201" value="Search" style="strokeWidth=1;shadow=0;dashed=0;align=center;html=1;shape=mxgraph.mockup.forms.searchBox;strokeColor=#999999;mainText=;strokeColor2=#008cff;fontColor=#666666;fontSize=17;align=left;spacingLeft=3;" vertex="1" parent="7026571954dc6520-1">
          <mxGeometry x="740" y="1140" width="220" height="30" as="geometry" />
        </mxCell>
        <mxCell id="LoF7N9ZbmjchOXrET8C3-202" value="&lt;span style=&quot;font-size: 16px&quot;&gt;Filtro 1&lt;/span&gt;" style="text;html=1;strokeColor=none;fillColor=none;align=center;verticalAlign=middle;whiteSpace=wrap;rounded=0;" vertex="1" parent="7026571954dc6520-1">
          <mxGeometry x="20" y="1100" width="60" height="30" as="geometry" />
        </mxCell>
        <mxCell id="LoF7N9ZbmjchOXrET8C3-203" value="&lt;span style=&quot;font-size: 16px&quot;&gt;Filtro 2&lt;/span&gt;" style="text;html=1;strokeColor=none;fillColor=none;align=center;verticalAlign=middle;whiteSpace=wrap;rounded=0;" vertex="1" parent="7026571954dc6520-1">
          <mxGeometry x="360" y="1100" width="60" height="30" as="geometry" />
        </mxCell>
        <mxCell id="LoF7N9ZbmjchOXrET8C3-204" value="&lt;span style=&quot;font-size: 16px&quot;&gt;Filtro 3&lt;br&gt;&lt;/span&gt;" style="text;html=1;strokeColor=none;fillColor=none;align=center;verticalAlign=middle;whiteSpace=wrap;rounded=0;" vertex="1" parent="7026571954dc6520-1">
          <mxGeometry x="740" y="1100" width="60" height="30" as="geometry" />
        </mxCell>
        <mxCell id="LoF7N9ZbmjchOXrET8C3-205" value="" style="shape=table;html=1;whiteSpace=wrap;startSize=0;container=1;collapsible=0;childLayout=tableLayout;fontSize=16;" vertex="1" parent="7026571954dc6520-1">
          <mxGeometry x="20" y="1240" width="960" height="120" as="geometry" />
        </mxCell>
        <mxCell id="LoF7N9ZbmjchOXrET8C3-206" value="" style="shape=tableRow;horizontal=0;startSize=0;swimlaneHead=0;swimlaneBody=0;top=0;left=0;bottom=0;right=0;collapsible=0;dropTarget=0;fillColor=none;points=[[0,0.5],[1,0.5]];portConstraint=eastwest;fontSize=16;" vertex="1" parent="LoF7N9ZbmjchOXrET8C3-205">
          <mxGeometry width="960" height="40" as="geometry" />
        </mxCell>
        <mxCell id="LoF7N9ZbmjchOXrET8C3-207" value="Nuevo" style="shape=partialRectangle;html=1;whiteSpace=wrap;connectable=0;fillColor=none;top=0;left=0;bottom=0;right=0;overflow=hidden;fontSize=16;" vertex="1" parent="LoF7N9ZbmjchOXrET8C3-206">
          <mxGeometry width="160" height="40" as="geometry">
            <mxRectangle width="160" height="40" as="alternateBounds" />
          </mxGeometry>
        </mxCell>
        <mxCell id="LoF7N9ZbmjchOXrET8C3-208" value="Diagnosticado" style="shape=partialRectangle;html=1;whiteSpace=wrap;connectable=0;fillColor=none;top=0;left=0;bottom=0;right=0;overflow=hidden;fontSize=16;" vertex="1" parent="LoF7N9ZbmjchOXrET8C3-206">
          <mxGeometry x="160" width="160" height="40" as="geometry">
            <mxRectangle width="160" height="40" as="alternateBounds" />
          </mxGeometry>
        </mxCell>
        <mxCell id="LoF7N9ZbmjchOXrET8C3-209" value="Paciente" style="shape=partialRectangle;html=1;whiteSpace=wrap;connectable=0;fillColor=none;top=0;left=0;bottom=0;right=0;overflow=hidden;fontSize=16;" vertex="1" parent="LoF7N9ZbmjchOXrET8C3-206">
          <mxGeometry x="320" width="160" height="40" as="geometry">
            <mxRectangle width="160" height="40" as="alternateBounds" />
          </mxGeometry>
        </mxCell>
        <mxCell id="LoF7N9ZbmjchOXrET8C3-210" value="Fecha" style="shape=partialRectangle;html=1;whiteSpace=wrap;connectable=0;fillColor=none;top=0;left=0;bottom=0;right=0;overflow=hidden;fontSize=16;" vertex="1" parent="LoF7N9ZbmjchOXrET8C3-206">
          <mxGeometry x="480" width="160" height="40" as="geometry">
            <mxRectangle width="160" height="40" as="alternateBounds" />
          </mxGeometry>
        </mxCell>
        <mxCell id="LoF7N9ZbmjchOXrET8C3-211" value="Datos predictivos" style="shape=partialRectangle;html=1;whiteSpace=wrap;connectable=0;fillColor=none;top=0;left=0;bottom=0;right=0;overflow=hidden;fontSize=16;" vertex="1" parent="LoF7N9ZbmjchOXrET8C3-206">
          <mxGeometry x="640" width="235" height="40" as="geometry">
            <mxRectangle width="235" height="40" as="alternateBounds" />
          </mxGeometry>
        </mxCell>
        <mxCell id="LoF7N9ZbmjchOXrET8C3-212" style="shape=partialRectangle;html=1;whiteSpace=wrap;connectable=0;fillColor=none;top=0;left=0;bottom=0;right=0;overflow=hidden;fontSize=16;" vertex="1" parent="LoF7N9ZbmjchOXrET8C3-206">
          <mxGeometry x="875" width="85" height="40" as="geometry">
            <mxRectangle width="85" height="40" as="alternateBounds" />
          </mxGeometry>
        </mxCell>
        <mxCell id="LoF7N9ZbmjchOXrET8C3-213" value="" style="shape=tableRow;horizontal=0;startSize=0;swimlaneHead=0;swimlaneBody=0;top=0;left=0;bottom=0;right=0;collapsible=0;dropTarget=0;fillColor=none;points=[[0,0.5],[1,0.5]];portConstraint=eastwest;fontSize=16;" vertex="1" parent="LoF7N9ZbmjchOXrET8C3-205">
          <mxGeometry y="40" width="960" height="40" as="geometry" />
        </mxCell>
        <mxCell id="LoF7N9ZbmjchOXrET8C3-214" value="&#39;&#39;&#39;" style="shape=partialRectangle;html=1;whiteSpace=wrap;connectable=0;fillColor=none;top=0;left=0;bottom=0;right=0;overflow=hidden;fontSize=16;" vertex="1" parent="LoF7N9ZbmjchOXrET8C3-213">
          <mxGeometry width="160" height="40" as="geometry">
            <mxRectangle width="160" height="40" as="alternateBounds" />
          </mxGeometry>
        </mxCell>
        <mxCell id="LoF7N9ZbmjchOXrET8C3-215" value="&#39;&#39;&#39;" style="shape=partialRectangle;html=1;whiteSpace=wrap;connectable=0;fillColor=none;top=0;left=0;bottom=0;right=0;overflow=hidden;fontSize=16;" vertex="1" parent="LoF7N9ZbmjchOXrET8C3-213">
          <mxGeometry x="160" width="160" height="40" as="geometry">
            <mxRectangle width="160" height="40" as="alternateBounds" />
          </mxGeometry>
        </mxCell>
        <mxCell id="LoF7N9ZbmjchOXrET8C3-216" value="&#39;&#39;&#39;" style="shape=partialRectangle;html=1;whiteSpace=wrap;connectable=0;fillColor=none;top=0;left=0;bottom=0;right=0;overflow=hidden;fontSize=16;" vertex="1" parent="LoF7N9ZbmjchOXrET8C3-213">
          <mxGeometry x="320" width="160" height="40" as="geometry">
            <mxRectangle width="160" height="40" as="alternateBounds" />
          </mxGeometry>
        </mxCell>
        <mxCell id="LoF7N9ZbmjchOXrET8C3-217" value="&#39;&#39;&#39;" style="shape=partialRectangle;html=1;whiteSpace=wrap;connectable=0;fillColor=none;top=0;left=0;bottom=0;right=0;overflow=hidden;fontSize=16;" vertex="1" parent="LoF7N9ZbmjchOXrET8C3-213">
          <mxGeometry x="480" width="160" height="40" as="geometry">
            <mxRectangle width="160" height="40" as="alternateBounds" />
          </mxGeometry>
        </mxCell>
        <mxCell id="LoF7N9ZbmjchOXrET8C3-218" value="&#39;&#39;&#39;" style="shape=partialRectangle;html=1;whiteSpace=wrap;connectable=0;fillColor=none;top=0;left=0;bottom=0;right=0;overflow=hidden;fontSize=16;" vertex="1" parent="LoF7N9ZbmjchOXrET8C3-213">
          <mxGeometry x="640" width="235" height="40" as="geometry">
            <mxRectangle width="235" height="40" as="alternateBounds" />
          </mxGeometry>
        </mxCell>
        <mxCell id="LoF7N9ZbmjchOXrET8C3-219" style="shape=partialRectangle;html=1;whiteSpace=wrap;connectable=0;fillColor=none;top=0;left=0;bottom=0;right=0;overflow=hidden;fontSize=16;" vertex="1" parent="LoF7N9ZbmjchOXrET8C3-213">
          <mxGeometry x="875" width="85" height="40" as="geometry">
            <mxRectangle width="85" height="40" as="alternateBounds" />
          </mxGeometry>
        </mxCell>
        <mxCell id="LoF7N9ZbmjchOXrET8C3-220" value="" style="shape=tableRow;horizontal=0;startSize=0;swimlaneHead=0;swimlaneBody=0;top=0;left=0;bottom=0;right=0;collapsible=0;dropTarget=0;fillColor=none;points=[[0,0.5],[1,0.5]];portConstraint=eastwest;fontSize=16;" vertex="1" parent="LoF7N9ZbmjchOXrET8C3-205">
          <mxGeometry y="80" width="960" height="40" as="geometry" />
        </mxCell>
        <mxCell id="LoF7N9ZbmjchOXrET8C3-221" value="&#39;&#39;&#39;" style="shape=partialRectangle;html=1;whiteSpace=wrap;connectable=0;fillColor=none;top=0;left=0;bottom=0;right=0;overflow=hidden;fontSize=16;" vertex="1" parent="LoF7N9ZbmjchOXrET8C3-220">
          <mxGeometry width="160" height="40" as="geometry">
            <mxRectangle width="160" height="40" as="alternateBounds" />
          </mxGeometry>
        </mxCell>
        <mxCell id="LoF7N9ZbmjchOXrET8C3-222" value="&#39;&#39;&#39;" style="shape=partialRectangle;html=1;whiteSpace=wrap;connectable=0;fillColor=none;top=0;left=0;bottom=0;right=0;overflow=hidden;fontSize=16;" vertex="1" parent="LoF7N9ZbmjchOXrET8C3-220">
          <mxGeometry x="160" width="160" height="40" as="geometry">
            <mxRectangle width="160" height="40" as="alternateBounds" />
          </mxGeometry>
        </mxCell>
        <mxCell id="LoF7N9ZbmjchOXrET8C3-223" value="&#39;&#39;&#39;" style="shape=partialRectangle;html=1;whiteSpace=wrap;connectable=0;fillColor=none;top=0;left=0;bottom=0;right=0;overflow=hidden;pointerEvents=1;fontSize=16;" vertex="1" parent="LoF7N9ZbmjchOXrET8C3-220">
          <mxGeometry x="320" width="160" height="40" as="geometry">
            <mxRectangle width="160" height="40" as="alternateBounds" />
          </mxGeometry>
        </mxCell>
        <mxCell id="LoF7N9ZbmjchOXrET8C3-224" value="&#39;&#39;&#39;" style="shape=partialRectangle;html=1;whiteSpace=wrap;connectable=0;fillColor=none;top=0;left=0;bottom=0;right=0;overflow=hidden;pointerEvents=1;fontSize=16;" vertex="1" parent="LoF7N9ZbmjchOXrET8C3-220">
          <mxGeometry x="480" width="160" height="40" as="geometry">
            <mxRectangle width="160" height="40" as="alternateBounds" />
          </mxGeometry>
        </mxCell>
        <mxCell id="LoF7N9ZbmjchOXrET8C3-225" value="&#39;&#39;&#39;" style="shape=partialRectangle;html=1;whiteSpace=wrap;connectable=0;fillColor=none;top=0;left=0;bottom=0;right=0;overflow=hidden;pointerEvents=1;fontSize=16;" vertex="1" parent="LoF7N9ZbmjchOXrET8C3-220">
          <mxGeometry x="640" width="235" height="40" as="geometry">
            <mxRectangle width="235" height="40" as="alternateBounds" />
          </mxGeometry>
        </mxCell>
        <mxCell id="LoF7N9ZbmjchOXrET8C3-226" style="shape=partialRectangle;html=1;whiteSpace=wrap;connectable=0;fillColor=none;top=0;left=0;bottom=0;right=0;overflow=hidden;pointerEvents=1;fontSize=16;" vertex="1" parent="LoF7N9ZbmjchOXrET8C3-220">
          <mxGeometry x="875" width="85" height="40" as="geometry">
            <mxRectangle width="85" height="40" as="alternateBounds" />
          </mxGeometry>
        </mxCell>
        <mxCell id="LoF7N9ZbmjchOXrET8C3-262" value="Detalles" style="labelPosition=center;verticalLabelPosition=middle;align=center;html=1;shape=mxgraph.basic.button;dx=10;fontSize=16;" vertex="1" parent="7026571954dc6520-1">
          <mxGeometry x="900" y="1240" width="80" height="40" as="geometry" />
        </mxCell>
        <mxCell id="LoF7N9ZbmjchOXrET8C3-263" value="Detalles" style="labelPosition=center;verticalLabelPosition=middle;align=center;html=1;shape=mxgraph.basic.button;dx=10;fontSize=16;" vertex="1" parent="7026571954dc6520-1">
          <mxGeometry x="900" y="1280" width="80" height="40" as="geometry" />
        </mxCell>
        <mxCell id="LoF7N9ZbmjchOXrET8C3-264" value="Detalles" style="labelPosition=center;verticalLabelPosition=middle;align=center;html=1;shape=mxgraph.basic.button;dx=10;fontSize=16;" vertex="1" parent="7026571954dc6520-1">
          <mxGeometry x="900" y="1320" width="80" height="40" as="geometry" />
        </mxCell>
        <mxCell id="LoF7N9ZbmjchOXrET8C3-265" value="Tests de la marcha" style="text;strokeColor=none;fillColor=none;html=1;fontSize=24;fontStyle=1;verticalAlign=middle;align=center;" vertex="1" parent="7026571954dc6520-1">
          <mxGeometry x="20" y="1030" width="220" height="40" as="geometry" />
        </mxCell>
        <mxCell id="LoF7N9ZbmjchOXrET8C3-266" value="Test sin revisar: x" style="text;strokeColor=none;fillColor=none;html=1;fontSize=24;fontStyle=1;verticalAlign=middle;align=center;" vertex="1" parent="7026571954dc6520-1">
          <mxGeometry x="20" y="1400" width="210" height="40" as="geometry" />
        </mxCell>
        <mxCell id="LoF7N9ZbmjchOXrET8C3-267" value="Crear Nuevo" style="labelPosition=center;verticalLabelPosition=middle;align=center;html=1;shape=mxgraph.basic.shaded_button;dx=10;fillColor=#E6E6E6;strokeColor=none;fontSize=16;" vertex="1" parent="7026571954dc6520-1">
          <mxGeometry x="20" y="950" width="120" height="40" as="geometry" />
        </mxCell>
        <mxCell id="LoF7N9ZbmjchOXrET8C3-268" value="Cerrar sesion" style="labelPosition=center;verticalLabelPosition=middle;align=center;html=1;shape=mxgraph.basic.shaded_button;dx=10;fillColor=#E6E6E6;strokeColor=none;fontSize=16;" vertex="1" parent="7026571954dc6520-1">
          <mxGeometry x="830" y="120" width="120" height="50" as="geometry" />
        </mxCell>
        <mxCell id="LoF7N9ZbmjchOXrET8C3-31" value="Search" style="strokeWidth=1;shadow=0;dashed=0;align=center;html=1;shape=mxgraph.mockup.forms.searchBox;strokeColor=#999999;mainText=;strokeColor2=#008cff;fontColor=#666666;fontSize=17;align=left;spacingLeft=3;" vertex="1" parent="1">
          <mxGeometry x="140" y="360" width="210" height="30" as="geometry" />
        </mxCell>
        <mxCell id="LoF7N9ZbmjchOXrET8C3-32" value="Search" style="strokeWidth=1;shadow=0;dashed=0;align=center;html=1;shape=mxgraph.mockup.forms.searchBox;strokeColor=#999999;mainText=;strokeColor2=#008cff;fontColor=#666666;fontSize=17;align=left;spacingLeft=3;" vertex="1" parent="1">
          <mxGeometry x="480" y="360" width="230" height="30" as="geometry" />
        </mxCell>
        <mxCell id="LoF7N9ZbmjchOXrET8C3-33" value="Search" style="strokeWidth=1;shadow=0;dashed=0;align=center;html=1;shape=mxgraph.mockup.forms.searchBox;strokeColor=#999999;mainText=;strokeColor2=#008cff;fontColor=#666666;fontSize=17;align=left;spacingLeft=3;" vertex="1" parent="1">
          <mxGeometry x="860" y="360" width="220" height="30" as="geometry" />
        </mxCell>
        <mxCell id="LoF7N9ZbmjchOXrET8C3-34" value="&lt;span style=&quot;font-size: 16px&quot;&gt;Filtro 1&lt;/span&gt;" style="text;html=1;strokeColor=none;fillColor=none;align=center;verticalAlign=middle;whiteSpace=wrap;rounded=0;" vertex="1" parent="1">
          <mxGeometry x="140" y="320" width="60" height="30" as="geometry" />
        </mxCell>
        <mxCell id="LoF7N9ZbmjchOXrET8C3-35" value="&lt;span style=&quot;font-size: 16px&quot;&gt;Filtro 2&lt;/span&gt;" style="text;html=1;strokeColor=none;fillColor=none;align=center;verticalAlign=middle;whiteSpace=wrap;rounded=0;" vertex="1" parent="1">
          <mxGeometry x="480" y="320" width="60" height="30" as="geometry" />
        </mxCell>
        <mxCell id="LoF7N9ZbmjchOXrET8C3-36" value="&lt;span style=&quot;font-size: 16px&quot;&gt;Filtro 3&lt;br&gt;&lt;/span&gt;" style="text;html=1;strokeColor=none;fillColor=none;align=center;verticalAlign=middle;whiteSpace=wrap;rounded=0;" vertex="1" parent="1">
          <mxGeometry x="860" y="320" width="60" height="30" as="geometry" />
        </mxCell>
        <mxCell id="LoF7N9ZbmjchOXrET8C3-37" value="" style="shape=table;html=1;whiteSpace=wrap;startSize=0;container=1;collapsible=0;childLayout=tableLayout;fontSize=16;" vertex="1" parent="1">
          <mxGeometry x="140" y="460" width="960" height="120" as="geometry" />
        </mxCell>
        <mxCell id="LoF7N9ZbmjchOXrET8C3-38" value="" style="shape=tableRow;horizontal=0;startSize=0;swimlaneHead=0;swimlaneBody=0;top=0;left=0;bottom=0;right=0;collapsible=0;dropTarget=0;fillColor=none;points=[[0,0.5],[1,0.5]];portConstraint=eastwest;fontSize=16;" vertex="1" parent="LoF7N9ZbmjchOXrET8C3-37">
          <mxGeometry width="960" height="40" as="geometry" />
        </mxCell>
        <mxCell id="LoF7N9ZbmjchOXrET8C3-39" value="Nuevo" style="shape=partialRectangle;html=1;whiteSpace=wrap;connectable=0;fillColor=none;top=0;left=0;bottom=0;right=0;overflow=hidden;fontSize=16;" vertex="1" parent="LoF7N9ZbmjchOXrET8C3-38">
          <mxGeometry width="160" height="40" as="geometry">
            <mxRectangle width="160" height="40" as="alternateBounds" />
          </mxGeometry>
        </mxCell>
        <mxCell id="LoF7N9ZbmjchOXrET8C3-40" value="Diagnosticado" style="shape=partialRectangle;html=1;whiteSpace=wrap;connectable=0;fillColor=none;top=0;left=0;bottom=0;right=0;overflow=hidden;fontSize=16;" vertex="1" parent="LoF7N9ZbmjchOXrET8C3-38">
          <mxGeometry x="160" width="160" height="40" as="geometry">
            <mxRectangle width="160" height="40" as="alternateBounds" />
          </mxGeometry>
        </mxCell>
        <mxCell id="LoF7N9ZbmjchOXrET8C3-41" value="Paciente" style="shape=partialRectangle;html=1;whiteSpace=wrap;connectable=0;fillColor=none;top=0;left=0;bottom=0;right=0;overflow=hidden;fontSize=16;" vertex="1" parent="LoF7N9ZbmjchOXrET8C3-38">
          <mxGeometry x="320" width="160" height="40" as="geometry">
            <mxRectangle width="160" height="40" as="alternateBounds" />
          </mxGeometry>
        </mxCell>
        <mxCell id="LoF7N9ZbmjchOXrET8C3-42" value="Fecha" style="shape=partialRectangle;html=1;whiteSpace=wrap;connectable=0;fillColor=none;top=0;left=0;bottom=0;right=0;overflow=hidden;fontSize=16;" vertex="1" parent="LoF7N9ZbmjchOXrET8C3-38">
          <mxGeometry x="480" width="160" height="40" as="geometry">
            <mxRectangle width="160" height="40" as="alternateBounds" />
          </mxGeometry>
        </mxCell>
        <mxCell id="LoF7N9ZbmjchOXrET8C3-43" value="Datos predictivos" style="shape=partialRectangle;html=1;whiteSpace=wrap;connectable=0;fillColor=none;top=0;left=0;bottom=0;right=0;overflow=hidden;fontSize=16;" vertex="1" parent="LoF7N9ZbmjchOXrET8C3-38">
          <mxGeometry x="640" width="235" height="40" as="geometry">
            <mxRectangle width="235" height="40" as="alternateBounds" />
          </mxGeometry>
        </mxCell>
        <mxCell id="LoF7N9ZbmjchOXrET8C3-44" style="shape=partialRectangle;html=1;whiteSpace=wrap;connectable=0;fillColor=none;top=0;left=0;bottom=0;right=0;overflow=hidden;fontSize=16;" vertex="1" parent="LoF7N9ZbmjchOXrET8C3-38">
          <mxGeometry x="875" width="85" height="40" as="geometry">
            <mxRectangle width="85" height="40" as="alternateBounds" />
          </mxGeometry>
        </mxCell>
        <mxCell id="LoF7N9ZbmjchOXrET8C3-45" value="" style="shape=tableRow;horizontal=0;startSize=0;swimlaneHead=0;swimlaneBody=0;top=0;left=0;bottom=0;right=0;collapsible=0;dropTarget=0;fillColor=none;points=[[0,0.5],[1,0.5]];portConstraint=eastwest;fontSize=16;" vertex="1" parent="LoF7N9ZbmjchOXrET8C3-37">
          <mxGeometry y="40" width="960" height="40" as="geometry" />
        </mxCell>
        <mxCell id="LoF7N9ZbmjchOXrET8C3-46" value="&#39;&#39;&#39;" style="shape=partialRectangle;html=1;whiteSpace=wrap;connectable=0;fillColor=none;top=0;left=0;bottom=0;right=0;overflow=hidden;fontSize=16;" vertex="1" parent="LoF7N9ZbmjchOXrET8C3-45">
          <mxGeometry width="160" height="40" as="geometry">
            <mxRectangle width="160" height="40" as="alternateBounds" />
          </mxGeometry>
        </mxCell>
        <mxCell id="LoF7N9ZbmjchOXrET8C3-47" value="&#39;&#39;&#39;" style="shape=partialRectangle;html=1;whiteSpace=wrap;connectable=0;fillColor=none;top=0;left=0;bottom=0;right=0;overflow=hidden;fontSize=16;" vertex="1" parent="LoF7N9ZbmjchOXrET8C3-45">
          <mxGeometry x="160" width="160" height="40" as="geometry">
            <mxRectangle width="160" height="40" as="alternateBounds" />
          </mxGeometry>
        </mxCell>
        <mxCell id="LoF7N9ZbmjchOXrET8C3-48" value="&#39;&#39;&#39;" style="shape=partialRectangle;html=1;whiteSpace=wrap;connectable=0;fillColor=none;top=0;left=0;bottom=0;right=0;overflow=hidden;fontSize=16;" vertex="1" parent="LoF7N9ZbmjchOXrET8C3-45">
          <mxGeometry x="320" width="160" height="40" as="geometry">
            <mxRectangle width="160" height="40" as="alternateBounds" />
          </mxGeometry>
        </mxCell>
        <mxCell id="LoF7N9ZbmjchOXrET8C3-49" value="&#39;&#39;&#39;" style="shape=partialRectangle;html=1;whiteSpace=wrap;connectable=0;fillColor=none;top=0;left=0;bottom=0;right=0;overflow=hidden;fontSize=16;" vertex="1" parent="LoF7N9ZbmjchOXrET8C3-45">
          <mxGeometry x="480" width="160" height="40" as="geometry">
            <mxRectangle width="160" height="40" as="alternateBounds" />
          </mxGeometry>
        </mxCell>
        <mxCell id="LoF7N9ZbmjchOXrET8C3-50" value="&#39;&#39;&#39;" style="shape=partialRectangle;html=1;whiteSpace=wrap;connectable=0;fillColor=none;top=0;left=0;bottom=0;right=0;overflow=hidden;fontSize=16;" vertex="1" parent="LoF7N9ZbmjchOXrET8C3-45">
          <mxGeometry x="640" width="235" height="40" as="geometry">
            <mxRectangle width="235" height="40" as="alternateBounds" />
          </mxGeometry>
        </mxCell>
        <mxCell id="LoF7N9ZbmjchOXrET8C3-51" style="shape=partialRectangle;html=1;whiteSpace=wrap;connectable=0;fillColor=none;top=0;left=0;bottom=0;right=0;overflow=hidden;fontSize=16;" vertex="1" parent="LoF7N9ZbmjchOXrET8C3-45">
          <mxGeometry x="875" width="85" height="40" as="geometry">
            <mxRectangle width="85" height="40" as="alternateBounds" />
          </mxGeometry>
        </mxCell>
        <mxCell id="LoF7N9ZbmjchOXrET8C3-52" value="" style="shape=tableRow;horizontal=0;startSize=0;swimlaneHead=0;swimlaneBody=0;top=0;left=0;bottom=0;right=0;collapsible=0;dropTarget=0;fillColor=none;points=[[0,0.5],[1,0.5]];portConstraint=eastwest;fontSize=16;" vertex="1" parent="LoF7N9ZbmjchOXrET8C3-37">
          <mxGeometry y="80" width="960" height="40" as="geometry" />
        </mxCell>
        <mxCell id="LoF7N9ZbmjchOXrET8C3-53" value="&#39;&#39;&#39;" style="shape=partialRectangle;html=1;whiteSpace=wrap;connectable=0;fillColor=none;top=0;left=0;bottom=0;right=0;overflow=hidden;fontSize=16;" vertex="1" parent="LoF7N9ZbmjchOXrET8C3-52">
          <mxGeometry width="160" height="40" as="geometry">
            <mxRectangle width="160" height="40" as="alternateBounds" />
          </mxGeometry>
        </mxCell>
        <mxCell id="LoF7N9ZbmjchOXrET8C3-54" value="&#39;&#39;&#39;" style="shape=partialRectangle;html=1;whiteSpace=wrap;connectable=0;fillColor=none;top=0;left=0;bottom=0;right=0;overflow=hidden;fontSize=16;" vertex="1" parent="LoF7N9ZbmjchOXrET8C3-52">
          <mxGeometry x="160" width="160" height="40" as="geometry">
            <mxRectangle width="160" height="40" as="alternateBounds" />
          </mxGeometry>
        </mxCell>
        <mxCell id="LoF7N9ZbmjchOXrET8C3-55" value="&#39;&#39;&#39;" style="shape=partialRectangle;html=1;whiteSpace=wrap;connectable=0;fillColor=none;top=0;left=0;bottom=0;right=0;overflow=hidden;pointerEvents=1;fontSize=16;" vertex="1" parent="LoF7N9ZbmjchOXrET8C3-52">
          <mxGeometry x="320" width="160" height="40" as="geometry">
            <mxRectangle width="160" height="40" as="alternateBounds" />
          </mxGeometry>
        </mxCell>
        <mxCell id="LoF7N9ZbmjchOXrET8C3-56" value="&#39;&#39;&#39;" style="shape=partialRectangle;html=1;whiteSpace=wrap;connectable=0;fillColor=none;top=0;left=0;bottom=0;right=0;overflow=hidden;pointerEvents=1;fontSize=16;" vertex="1" parent="LoF7N9ZbmjchOXrET8C3-52">
          <mxGeometry x="480" width="160" height="40" as="geometry">
            <mxRectangle width="160" height="40" as="alternateBounds" />
          </mxGeometry>
        </mxCell>
        <mxCell id="LoF7N9ZbmjchOXrET8C3-57" value="&#39;&#39;&#39;" style="shape=partialRectangle;html=1;whiteSpace=wrap;connectable=0;fillColor=none;top=0;left=0;bottom=0;right=0;overflow=hidden;pointerEvents=1;fontSize=16;" vertex="1" parent="LoF7N9ZbmjchOXrET8C3-52">
          <mxGeometry x="640" width="235" height="40" as="geometry">
            <mxRectangle width="235" height="40" as="alternateBounds" />
          </mxGeometry>
        </mxCell>
        <mxCell id="LoF7N9ZbmjchOXrET8C3-58" style="shape=partialRectangle;html=1;whiteSpace=wrap;connectable=0;fillColor=none;top=0;left=0;bottom=0;right=0;overflow=hidden;pointerEvents=1;fontSize=16;" vertex="1" parent="LoF7N9ZbmjchOXrET8C3-52">
          <mxGeometry x="875" width="85" height="40" as="geometry">
            <mxRectangle width="85" height="40" as="alternateBounds" />
          </mxGeometry>
        </mxCell>
        <mxCell id="LoF7N9ZbmjchOXrET8C3-94" value="Detalles" style="labelPosition=center;verticalLabelPosition=middle;align=center;html=1;shape=mxgraph.basic.button;dx=10;fontSize=16;" vertex="1" parent="1">
          <mxGeometry x="1020" y="460" width="80" height="40" as="geometry" />
        </mxCell>
        <mxCell id="LoF7N9ZbmjchOXrET8C3-95" value="Detalles" style="labelPosition=center;verticalLabelPosition=middle;align=center;html=1;shape=mxgraph.basic.button;dx=10;fontSize=16;" vertex="1" parent="1">
          <mxGeometry x="1020" y="500" width="80" height="40" as="geometry" />
        </mxCell>
        <mxCell id="LoF7N9ZbmjchOXrET8C3-96" value="Detalles" style="labelPosition=center;verticalLabelPosition=middle;align=center;html=1;shape=mxgraph.basic.button;dx=10;fontSize=16;" vertex="1" parent="1">
          <mxGeometry x="1020" y="540" width="80" height="40" as="geometry" />
        </mxCell>
      </root>
    </mxGraphModel>
  </diagram>
</mxfile>
